<svg preserveAspectRatio="none" overflow="visible" style="display: block;" width="24" height="24" viewBox="0 0 24 24" fill="none" xmlns="http://www.w3.org/2000/svg">
<g id="SVG">
<path id="Vector" d="M11.47 3.84C11.7628 3.54755 12.2372 3.54755 12.53 3.84L21.22 12.53C21.407 12.7307 21.6886 12.8132 21.9543 12.7454C22.22 12.6775 22.4275 12.47 22.4954 12.2043C22.5632 11.9386 22.4807 11.657 22.28 11.47L13.591 2.78C13.169 2.35804 12.5967 2.12098 12 2.12098C11.4033 2.12098 10.831 2.35804 10.409 2.78L1.719 11.47C1.43491 11.7644 1.43919 12.2322 1.72863 12.5214C2.01807 12.8105 2.48585 12.8144 2.78 12.53L11.47 3.84V3.84" fill="#FF0033"/>
<path id="Vector_2" d="M12 5.432L20.159 13.591C20.189 13.621 20.219 13.649 20.25 13.677V19.875C20.25 20.91 19.41 21.75 18.375 21.75H15C14.5861 21.75 14.25 21.4139 14.25 21V16.5C14.25 16.0861 13.9139 15.75 13.5 15.75H10.5C10.0861 15.75 9.75 16.0861 9.75 16.5V21C9.75 21.4139 9.41394 21.75 9 21.75H5.625C4.59016 21.75 3.75 20.9098 3.75 19.875V13.677C3.78111 13.6492 3.81146 13.6205 3.841 13.591L12 5.43V5.432" fill="#FF0033"/>
</g>
</svg>
